<svg xmlns="http://www.w3.org/2000/svg" viewBox="0 0 242.84 213.75"><defs><style>.cls-1{fill:#4e5b92;}</style></defs><title>phpantry_logo</title><g id="Layer_2" data-name="Layer 2"><g id="phpantry_logo"><path class="cls-1" d="M187.62,73.87a19.27,19.27,0,0,0,7.22-15.1V54l-3.65,1H156.84v4.45A18.55,18.55,0,0,0,175.39,78h0A19.41,19.41,0,0,0,187.62,73.87ZM186.84,62A11.81,11.81,0,0,1,184,66.58,11.74,11.74,0,0,1,164.59,62Z"/><path class="cls-1" d="M0,57.91a58,58,0,0,0,57.91,57.91c1.13,0,2.27,0,3.41-.1a55.23,55.23,0,0,0,48.7,28.8A33.86,33.86,0,0,0,143.75,113h33.4c.43,18.69,4.56,35.18,11,46.8A16.15,16.15,0,0,1,176,174.76l-1.6.4a16.14,16.14,0,0,1-19.88-13L154,159H126.84v3.15c0,28.4,23.23,51.89,51.62,51.58a65.24,65.24,0,0,0,64.38-65.22l-1-93.66h1l-1-1.32V52.35l1-.12v-.08c0-.81,0-1.61-.06-2.41,0-.37-.05-.73-.08-1.09s-.06-1-.11-1.44-.07-.7-.12-1c-.05-.5-.11-1-.19-1.49,0-.31-.09-.62-.14-.92-.09-.55-.19-1.1-.3-1.64q-.06-.36-.15-.72c-.13-.65-.28-1.28-.44-1.92l-.1-.4a52.17,52.17,0,0,0-35-36.66c-.39-.13-.79-.23-1.19-.35l-1-.29c-.59-.16-1.19-.3-1.79-.43l-.48-.12c-.66-.14-1.33-.27-2-.39l-.2,0-.71-.12-.39-.07-1.5-.26,0,.07A51.66,51.66,0,0,0,190.46,0H57.91A58,58,0,0,0,0,57.91Zm73.46,63.76A65.14,65.14,0,0,0,100,8h4.44a68,68,0,0,1-28.7,116.1C75,123.33,74.19,122.51,73.46,121.67ZM200.64,8.8l.21,0c.39.09.77.2,1.15.3l1,.29.75.23A43.57,43.57,0,0,1,208,11.26a21.79,21.79,0,0,0,19.53,31.47,22,22,0,0,0,6.22-.9c.1.42.2.83.29,1.26l.09.45c.11.54.21,1.08.29,1.63l.09.49c.1.68.19,1.35.26,2,0,.19,0,.39,0,.58,0,.41.07.81.1,1.22A29.51,29.51,0,0,1,200.64,8.8Zm-7.33,159.89a27.31,27.31,0,0,0,12.53,8.5l.33.1c.52.14,1.05.27,1.58.37h0c.53.1,1.06.17,1.6.23l.8.07c.38,0,1,0,1.4,0h3.26V107h-19v-1h-52V8H190.2c.93,0,1.86,0,2.78.1A36.7,36.7,0,0,0,227.38,58a37.17,37.17,0,0,0,7.46-.76V64H207.19l27.65,14v2H207.23l27.61,14.22V96H207.23l27.61,14.22V150a58.54,58.54,0,0,1-32,52.32V186.28l-9.16,18.08a57.63,57.63,0,0,1-6.84,1.6v-19.5l-10.4,20.29a45,45,0,0,1-5.6-.41V186.46l-9,17.63A43.66,43.66,0,0,1,133.12,167h13.61a23.81,23.81,0,0,0,9.76,12.78,24.2,24.2,0,0,0,18.94,3.14l1.62-.4A23.85,23.85,0,0,0,193.31,168.69Zm-83.75-31.53a48.23,48.23,0,0,1-27.12-8.26A75.56,75.56,0,0,0,114.72,7h21.12V113h.09A26.5,26.5,0,0,1,109.56,137.16ZM57.48,109.31c-1.29,0-2.56-.07-3.83-.16a40,40,0,0,0-2.36-7,38.75,38.75,0,0,0-4.84,5.89,50,50,0,0,1-10-3.35c.59-2.71.17-8.12.17-8.12s-4.87,2.56-6.8,4.46a50.65,50.65,0,0,1-8.1-6.56C23.18,92.39,24.32,87,24.32,87s-5.38.51-7.62,1.67a51.55,51.55,0,0,1-5.28-9c2-1.31,4.55-5.84,4.55-5.84S11.1,72.08,8.74,72.4A50.2,50.2,0,0,1,7,62.16c2.43-.53,7-3.89,7-3.89S9.46,55,7,54.39A50,50,0,0,1,9,44.17c2.54.29,7.73-1,7.73-1s-2.89-4.58-5-6.15a50.44,50.44,0,0,1,5.44-8.94,44.17,44.17,0,0,0,8,2,44.88,44.88,0,0,0-3.07-7.62,50.75,50.75,0,0,1,8.25-6.55,53.23,53.23,0,0,0,6.33,4.57,50.07,50.07,0,0,0,0-8A49.94,49.94,0,0,1,46.8,9.14a59,59,0,0,0,4.58,6.23,62.28,62.28,0,0,0,2.16-7.2c1.3-.1,2.61-.17,3.94-.17H64.4a48.35,48.35,0,0,0,2.34,6.63s3.84-4.18,5-6.63H94.06a61.23,61.23,0,0,1,26,50.26,61.83,61.83,0,0,1-49.16,60.26A49.41,49.41,0,0,1,68,114a4.19,4.19,0,0,0,1.77-.36,4,4,0,1,0-5.44-4.77l-1.62.16A50.36,50.36,0,0,1,57.48,109.31Z"/><circle class="cls-1" cx="175.71" cy="47.67" r="4.22" transform="translate(122.52 221.79) rotate(-88.19)"/><circle class="cls-1" cx="175.71" cy="86.32" r="4.22" transform="translate(-3 6.39) rotate(-2.07)"/><path class="cls-1" d="M163.67,78.52a3.58,3.58,0,1,1-3.58,3.58A3.57,3.57,0,0,1,163.67,78.52Z"/><path class="cls-1" d="M154,75.78a2.5,2.5,0,1,1,2.5-2.49A2.49,2.49,0,0,1,154,75.78Z"/><path class="cls-1" d="M150.55,62.52A1.42,1.42,0,1,1,152,61.1,1.42,1.42,0,0,1,150.55,62.52Z"/><circle class="cls-1" cx="187.68" cy="82.1" r="3.57"/><path class="cls-1" d="M197.39,75.78a2.5,2.5,0,1,1,2.5-2.49A2.49,2.49,0,0,1,197.39,75.78Z"/><path class="cls-1" d="M200.81,62.52a1.42,1.42,0,1,1,1.41-1.42A1.42,1.42,0,0,1,200.81,62.52Z"/><path class="cls-1" d="M187,50.35a2.68,2.68,0,1,1,2.68-2.68A2.68,2.68,0,0,1,187,50.35Z"/><path class="cls-1" d="M163.67,50.35a2.68,2.68,0,1,1,2.67-2.68A2.68,2.68,0,0,1,163.67,50.35Z"/><path class="cls-1" d="M58.57,97.86A40.09,40.09,0,1,0,18.49,57.77,40.13,40.13,0,0,0,58.57,97.86ZM27.12,57.77A31.46,31.46,0,1,1,58.57,89.23,31.49,31.49,0,0,1,27.12,57.77Z"/><path class="cls-1" d="M107.56,57.77a4,4,0,1,1,4,4A4,4,0,0,1,107.56,57.77Z"/><path class="cls-1" d="M109.72,72a4,4,0,1,1-5.09,2.37A4,4,0,0,1,109.72,72Z"/><path class="cls-1" d="M101.78,88.53a4,4,0,1,1-5.59.48A4,4,0,0,1,101.78,88.53Z"/><path class="cls-1" d="M83.26,99.86a4,4,0,1,1-1.45,5.42A4,4,0,0,1,83.26,99.86Z"/><path class="cls-1" d="M83.26,15.68a4,4,0,1,1,5.42-1.45A4,4,0,0,1,83.26,15.68Z"/><path class="cls-1" d="M96.19,26.53a4,4,0,1,1,5.59.49A4,4,0,0,1,96.19,26.53Z"/><path class="cls-1" d="M107,36.06a4,4,0,1,1-2.37,5.09A4,4,0,0,1,107,36.06Z"/></g></g></svg>